# xmcd
#
# Track frame offsets:
#	150
#	15990
#	31464
#	46176
#	60449
#	76227
#	87420
#	100819
#	113134
#	128397
#	144457
#	161994
#	177013
#	193780
#	208601
#	224898
#	240753
#
# Disc length: 3409 seconds
#
# Revision: 0
# Processed by: cddbd v1.5.2PL0 Copyright (c) Steve Scherf et al.
# Submitted via: EasyCDDAExtractor 16.0.6.1
#
DISCID=dc0d4f11
DTITLE=Νίνου Μαρίκα - Στον κόσμο των μεγάλων-Μ. Νίνου
DYEAR=1997
DGENRE=Ποικίλη
TTITLE0=Νίνου Μαρίκα - Αγάπη πού 'γινες δίκοπο μαχαίρι [Μ. Χατζιδάκι-Μ. Κακογι
TTITLE0=άννη]
TTITLE1=Νίνου Μαρίκα-Τσιτσάνης Βασίλης-ορχήστρα - Και ο μήνας έχει εννιά [Βασ.
TTITLE1=Τσιτσάνη]
TTITLE2=Νίνου Μαρίκα - Το βουνό [Λουκά Νταράλα-Ε. Πρέκα]
TTITLE3=Νίνου Μαρίκα - Πες μου αν με βαρέθηκες [Μαν. Χιώτη]
TTITLE4=Νίνου Μαρίκα-Χατζηχρήστος Απόστολος - Η μικρή του καμηλιέρη [Απ. Χατζη
TTITLE4=χρήστου]
TTITLE5=Νίνου Μαρίκα - Εύχομαι και στα δικά σου (Στο πείσμα..)[Θ. Δερβενιώτη-Χ
TTITLE5=Κολοκοτρώνη]
TTITLE6=Νίνου Μαρίκα-Τσιτσάνης Βασίλης-ορχήστρα - Στο Τούνεζι, στην Μπαρμπαριά
TTITLE6=[Σπ. Περστέρη-Β. Τσιτσάνη]
TTITLE7=Νίνου Μαρίκα-Τσιτσάνης Βασίλης-ορχήστρα - Άη Νικόλα [Βασ. Τσιτσάνη]
TTITLE8=Νίνου Μαρίκα-Τσιτσάνης Βασίλης-ορχήστρα - Σία κι αράξαμε [Γ. Παπαϊωάνν
TTITLE8=ου-Χ. Βασιλειάδη]
TTITLE9=Νίνου Μαρίκα-Τσιτσάνης Βασίλης-ορχήστρα - Ξημερώνει και βραδιάζει (Αλέ
TTITLE9=γκρα)[Βασ. Τσιτσάνη]
TTITLE10=Νίνου Μαρίκα-Τσιτσάνης Βασίλης-ορχήστρα - Γκιουλμπαχάρ [Τζίμη Χ., Βασ
TTITLE10=Τσιτσάνη]
TTITLE11=Νίνου Μαρίκα-Τσιτσάνης Βασίλης-ορχήστρα - Σεράχ [Τζίμη Χ., Βασ. Τσιτσ
TTITLE11=άνη]
TTITLE12=Νίνου Μαρίκα-Τσιτσάνης Βασίλης-Ευγενικός Αθ. - Συννεφιασμένη Κυριακή 
TTITLE12=[Β. Τσιτσάνη-Αλ. Γκούβερη]
TTITLE13=Νίνου Μαρίκα-Τσιτσάνης Βασίλης-ορχήστρα - Καθάρισε τη θέση σου [Βασ. 
TTITLE13=Τσιτσάνη]
TTITLE14=Νίνου Μαρίκα-Τσιτσάνης Βασίλης-ορχήστρα - Πάιξτε μπουζούκια, παίξτε β
TTITLE14=ιολιά [Βασ. Τσιτσάνη]
TTITLE15=Νίνου Μαρίκα-Τσιτσάνης Βασίλης-Καλλέργης Μ. - Ό,τι μού κάνεις, θα σού
TTITLE15=κάνω [Βασ. Τσιτσάνη-Γ. Τσάκαλου]
TTITLE16=Νίνου Μαρίκα-Τσιτσάνης Βασίλης-ορχήστρα - Τα βάσανα μέσ' στη ζωή (Παί
TTITLE16=ξε μπουζούκι)[Β. Τσιτσάνη]
EXTD=
EXTT0=
EXTT1=
EXTT2=
EXTT3=
EXTT4=
EXTT5=
EXTT6=
EXTT7=
EXTT8=
EXTT9=
EXTT10=
EXTT11=
EXTT12=
EXTT13=
EXTT14=
EXTT15=
EXTT16=
PLAYORDER=
